<?xml version="1.0" encoding="utf-8"?>
<!-- Generator: Adobe Illustrator 21.0.0, SVG Export Plug-In . SVG Version: 6.00 Build 0)  -->
<svg version="1.1" id="Halloween_Icon" xmlns="http://www.w3.org/2000/svg" xmlns:xlink="http://www.w3.org/1999/xlink" x="0px"
	 y="0px" viewBox="0 0 56 56" style="enable-background:new 0 0 56 56;" xml:space="preserve">
<style type="text/css">
	.st0{fill:#37474F;}
	.st1{fill:#C62828;}
	.st2{fill:#B71C1C;}
	.st3{fill:#EEEEEE;}
	.st4{fill:#E0E0E0;}
	.st5{fill:#26C6DA;}
	.st6{fill:#00ACC1;}
	.st7{fill:#424242;}
	.st8{fill:#80DEEA;}
	.st9{fill:#616161;}
	.st10{fill:#FAFAFA;}
	.st11{fill:#D81B60;}
	.st12{fill:#C2185B;}
	.st13{fill:#212121;}
	.st14{fill:#263238;}
	.st15{fill:#880E4F;}
	.st16{fill:#FFB300;}
	.st17{fill:#FF8F00;}
	.st18{fill:#8D6E63;}
	.st19{fill:#6D4C41;}
	.st20{fill:#66BB6A;}
	.st21{fill:#43A047;}
	.st22{fill:#5D4037;}
	.st23{fill:#EF6C00;}
	.st24{fill:#E65100;}
	.st25{fill:#FB8C00;}
	.st26{fill:#BCAAA4;}
	.st27{fill:#7E57C2;}
	.st28{fill:#5E35B1;}
	.st29{fill:#3E2723;}
	.st30{fill:#9575CD;}
	.st31{fill:#CFD8DC;}
	.st32{fill:#B0BEC5;}
	.st33{fill:#ECEFF1;}
	.st34{fill:#AD1457;}
	.st35{fill:#78909C;}
	.st36{fill:#546E7A;}
	.st37{fill:#90A4AE;}
	.st38{fill:#455A64;}
	.st39{fill:#FFA000;}
	.st40{fill:none;stroke:#6D4C41;stroke-linecap:round;stroke-miterlimit:10;}
	.st41{fill:#EC407A;}
	.st42{fill:#FBC02D;}
	.st43{fill:#F48FB1;}
	.st44{fill:#FFEE58;}
	.st45{fill:#F9A825;}
	.st46{fill:none;stroke:#C62828;stroke-linecap:round;stroke-linejoin:round;stroke-miterlimit:10;}
	.st47{fill:#00838F;}
	.st48{fill:#006064;}
	.st49{fill:#FFECB3;}
	.st50{fill:#BDBDBD;}
	.st51{fill:#4E342E;}
	.st52{fill:#F5F5F5;}
	.st53{fill:none;stroke:#6D4C41;stroke-miterlimit:10;}
	.st54{fill:#757575;}
	.st55{fill:#D7CCC8;}
	.st56{fill:#388E3C;}
	.st57{fill:none;stroke:#A5D6A7;stroke-linecap:round;stroke-miterlimit:10;}
	.st58{fill:#4A148C;}
	.st59{fill:#6A1B9A;}
	.st60{fill:#00897B;}
	.st61{fill:#F57C00;}
</style>
<g id="Pumpkin">
	<path class="st0" d="M46,56H10C4.5,56,0,51.5,0,46V10C0,4.5,4.5,0,10,0h36c5.5,0,10,4.5,10,10v36C56,51.5,51.5,56,46,56z"/>
	<g>
		<path class="st60" d="M28.6,17h-1.2c-0.5,0-0.9-0.4-1-0.9l-0.8-7C25.6,8.5,26,8,26.6,8h2.8c0.6,0,1.1,0.5,1,1.1l-0.8,7
			C29.5,16.6,29.1,17,28.6,17z"/>
		<path class="st17" d="M35.4,15.6c-0.3,0-0.6,0-1,0.1C32.5,14.6,30.3,14,28,14s-4.5,0.6-6.4,1.7c-0.3,0-0.6-0.1-1-0.1
			C13.7,15.6,8,22.5,8,31c0,8.5,5.7,15.4,12.6,15.4c0.3,0,0.6,0,1-0.1c1.9,1.1,4.1,1.7,6.4,1.7s4.5-0.6,6.4-1.7c0.3,0,0.6,0.1,1,0.1
			c7,0,12.6-6.9,12.6-15.4C48,22.5,42.3,15.6,35.4,15.6z"/>
		<path class="st61" d="M13.3,31c0-5.5,2.3-10.4,5.8-13.5c-4.7,2.8-7.9,7.8-7.9,13.5s3.2,10.7,7.9,13.5C15.5,41.4,13.3,36.5,13.3,31
			z"/>
		<path class="st61" d="M36.9,17.5c3.5,3.1,5.8,8,5.8,13.5s-2.3,10.4-5.8,13.5c4.7-2.8,7.9-7.8,7.9-13.5S41.7,20.3,36.9,17.5z"/>
		<path class="st61" d="M21.2,31c0-6.1,1.2-11.5,2.9-14.8c-3,2.7-5,8.3-5,14.8s2.1,12.1,5,14.8C22.3,42.5,21.2,37.1,21.2,31z"/>
		<path class="st61" d="M31.9,16.2c1.8,3.3,2.9,8.7,2.9,14.8s-1.2,11.5-2.9,14.8c3-2.7,5-8.3,5-14.8S34.9,18.9,31.9,16.2z"/>
		<path class="st7" d="M31.7,27.3l3.8-3.7c0.5-0.5,1.4-0.3,1.7,0.4l1.5,5.1c0.2,0.7-0.5,1.4-1.2,1.2L32.1,29
			C31.3,28.8,31.1,27.9,31.7,27.3z"/>
		<path class="st9" d="M36.4,27c-0.2-0.7-1.1-1-1.7-0.4L32.1,29l5.2,1.4L36.4,27z"/>
		<path class="st7" d="M17.4,29.2l1.5-5.1c0.2-0.7,1.1-1,1.7-0.4l3.8,3.7c0.6,0.5,0.3,1.5-0.4,1.7l-5.3,1.4
			C17.9,30.6,17.2,29.9,17.4,29.2z"/>
		<path class="st9" d="M21.3,26.5c-0.5-0.5-1.4-0.3-1.7,0.4l-1,3.4l5.2-1.4L21.3,26.5z"/>
		<path class="st7" d="M22.3,39.3l2.7-1.5c0.2-0.1,0.5-0.1,0.6,0.1l1.8,2.2c0.2,0.2,0.6,0.2,0.8,0L30,38c0.2-0.2,0.4-0.2,0.6-0.1
			l2.7,1.5c0.2,0.1,0.5,0,0.7-0.2l2.7-4.8c0.3-0.4-0.2-0.9-0.7-0.7l-2.5,1.4c-0.2,0.1-0.4,0.1-0.6-0.1l-1.9-1.9
			c-0.2-0.2-0.5-0.2-0.7,0L28.1,35c-0.2,0.2-0.5,0.2-0.6,0l-2.3-1.9c-0.2-0.2-0.5-0.2-0.7,0L22.7,35c-0.2,0.2-0.4,0.2-0.6,0.1
			L20,33.8c-0.4-0.3-0.9,0.2-0.7,0.6l2.3,4.7C21.7,39.4,22,39.5,22.3,39.3z"/>
		<path class="st9" d="M32.9,37l-1.9-1.9c-0.2-0.2-0.5-0.2-0.7,0L28.1,37c-0.2,0.2-0.5,0.2-0.6,0l-2.3-1.9c-0.2-0.2-0.5-0.2-0.7,0
			L22.7,37c-0.2,0.2-0.4,0.2-0.6,0.1L20,35.8c0,0,0,0,0,0l1.7,3.3c0.1,0.3,0.4,0.4,0.7,0.2l2.7-1.5c0.2-0.1,0.5-0.1,0.6,0.1l1.8,2.2
			c0.2,0.2,0.6,0.2,0.8,0L30,38c0.2-0.2,0.4-0.2,0.6-0.1l2.7,1.5c0.2,0.1,0.5,0,0.7-0.2l1.9-3.4l-2.4,1.4
			C33.3,37.2,33.1,37.2,32.9,37z"/>
	</g>
</g>
</svg>
