<?xml version="1.0" encoding="utf-8"?>
<!-- Generator: Adobe Illustrator 21.0.0, SVG Export Plug-In . SVG Version: 6.00 Build 0)  -->
<svg version="1.1" id="Halloween_Icon" xmlns="http://www.w3.org/2000/svg" xmlns:xlink="http://www.w3.org/1999/xlink" x="0px"
	 y="0px" viewBox="0 0 56 56" style="enable-background:new 0 0 56 56;" xml:space="preserve">
<style type="text/css">
	.st0{fill:#37474F;}
	.st1{fill:#C62828;}
	.st2{fill:#B71C1C;}
	.st3{fill:#EEEEEE;}
	.st4{fill:#E0E0E0;}
	.st5{fill:#26C6DA;}
	.st6{fill:#00ACC1;}
	.st7{fill:#424242;}
	.st8{fill:#80DEEA;}
	.st9{fill:#616161;}
	.st10{fill:#FAFAFA;}
	.st11{fill:#D81B60;}
	.st12{fill:#C2185B;}
	.st13{fill:#212121;}
	.st14{fill:#263238;}
	.st15{fill:#880E4F;}
	.st16{fill:#FFB300;}
	.st17{fill:#FF8F00;}
	.st18{fill:#8D6E63;}
	.st19{fill:#6D4C41;}
	.st20{fill:#66BB6A;}
	.st21{fill:#43A047;}
	.st22{fill:#5D4037;}
	.st23{fill:#EF6C00;}
	.st24{fill:#E65100;}
	.st25{fill:#FB8C00;}
	.st26{fill:#BCAAA4;}
	.st27{fill:#7E57C2;}
	.st28{fill:#5E35B1;}
	.st29{fill:#3E2723;}
	.st30{fill:#9575CD;}
	.st31{fill:#CFD8DC;}
	.st32{fill:#B0BEC5;}
	.st33{fill:#ECEFF1;}
	.st34{fill:#AD1457;}
	.st35{fill:#78909C;}
	.st36{fill:#546E7A;}
	.st37{fill:#90A4AE;}
	.st38{fill:#455A64;}
	.st39{fill:#FFA000;}
	.st40{fill:none;stroke:#6D4C41;stroke-linecap:round;stroke-miterlimit:10;}
	.st41{fill:#EC407A;}
	.st42{fill:#FBC02D;}
	.st43{fill:#F48FB1;}
	.st44{fill:#FFEE58;}
	.st45{fill:#F9A825;}
	.st46{fill:none;stroke:#C62828;stroke-linecap:round;stroke-linejoin:round;stroke-miterlimit:10;}
	.st47{fill:#00838F;}
	.st48{fill:#006064;}
	.st49{fill:#FFECB3;}
	.st50{fill:#BDBDBD;}
	.st51{fill:#4E342E;}
	.st52{fill:#F5F5F5;}
	.st53{fill:none;stroke:#6D4C41;stroke-miterlimit:10;}
	.st54{fill:#757575;}
	.st55{fill:#D7CCC8;}
	.st56{fill:#388E3C;}
	.st57{fill:none;stroke:#A5D6A7;stroke-linecap:round;stroke-miterlimit:10;}
	.st58{fill:#4A148C;}
	.st59{fill:#6A1B9A;}
	.st60{fill:#00897B;}
	.st61{fill:#F57C00;}
</style>
<g id="Frankenstein">
	<path class="st0" d="M46,56H10C4.5,56,0,51.5,0,46V10C0,4.5,4.5,0,10,0h36c5.5,0,10,4.5,10,10v36C56,51.5,51.5,56,46,56z"/>
	<g>
		<path class="st29" d="M42.6,28H13.4l-0.6-14.8c-0.1-2.8,2.1-5.2,5-5.2h20.5c2.8,0,5.1,2.4,5,5.2L42.6,28z"/>
		<circle class="st21" cx="15.5" cy="28.5" r="4"/>
		<circle class="st56" cx="15.5" cy="28.5" r="2"/>
		<circle class="st21" cx="40.5" cy="28.5" r="4"/>
		<circle class="st56" cx="40.5" cy="28.5" r="2"/>
		<rect x="10" y="34" class="st31" width="36" height="3"/>
		<rect x="10" y="34" class="st32" width="2.5" height="3"/>
		<rect x="43.5" y="34" class="st32" width="2.5" height="3"/>
		<rect x="10" y="35.5" class="st32" width="36" height="1.5"/>
		<path class="st20" d="M34.7,48H21.3c-4.4,0-7.9-3.8-7.5-8.2l2-20.3c0.3-2.6,2.4-4.5,5-4.5h14.5c2.6,0,4.7,1.9,5,4.5l2,20.3
			C42.7,44.2,39.2,48,34.7,48z"/>
		<g>
			<path class="st21" d="M16,39.8l1.7-20.3c0.2-2.6,2-4.5,4.2-4.5h-1.1c-2.6,0-4.7,1.9-5,4.5l-2,20.3c-0.4,4.4,3,8.2,7.5,8.2h1
				C18.5,48,15.6,44.2,16,39.8z"/>
			<path class="st21" d="M42.2,39.8l-2-20.3c-0.3-2.6-2.4-4.5-5-4.5h-1.1c2.2,0,4,1.9,4.2,4.5L40,39.8c0.4,4.4-2.5,8.2-6.3,8.2h1
				C39.2,48,42.7,44.2,42.2,39.8z"/>
		</g>
		<path class="st31" d="M10.5,32.5h-1c-0.6,0-1,0.4-1,1v4c0,0.6,0.4,1,1,1h1c0.6,0,1-0.4,1-1v-4C11.5,32.9,11.1,32.5,10.5,32.5z"/>
		<path class="st32" d="M10.5,37.5h-1c-0.6,0-1-0.4-1-1v1c0,0.6,0.4,1,1,1h1c0.6,0,1-0.4,1-1v-1C11.5,37.1,11.1,37.5,10.5,37.5z"/>
		<path class="st31" d="M46.5,32.5h-1c-0.6,0-1,0.4-1,1v4c0,0.6,0.4,1,1,1h1c0.6,0,1-0.4,1-1v-4C47.5,32.9,47.1,32.5,46.5,32.5z"/>
		<path class="st32" d="M46.5,37.5h-1c-0.6,0-1-0.4-1-1v1c0,0.6,0.4,1,1,1h1c0.6,0,1-0.4,1-1v-1C47.5,37.1,47.1,37.5,46.5,37.5z"/>
		<g>
			<line class="st57" x1="23" y1="18.8" x2="33" y2="18.8"/>
			<line class="st57" x1="24.2" y1="17.3" x2="24.2" y2="20.3"/>
			<line class="st57" x1="29.2" y1="17.3" x2="29.2" y2="20.3"/>
			<line class="st57" x1="26.8" y1="17.3" x2="26.8" y2="20.3"/>
			<line class="st57" x1="31.8" y1="17.3" x2="31.8" y2="20.3"/>
		</g>
		<path class="st58" d="M32.5,42h-9c-1.3,0-2.2-1.2-1.9-2.5l0.5-2c0.2-0.9,1-1.5,1.9-1.5h8c0.9,0,1.7,0.6,1.9,1.5l0.5,2
			C34.7,40.8,33.8,42,32.5,42z"/>
		<path class="st59" d="M32,38h-8c-0.9,0-1.7,0.6-1.9,1.5l-0.3,1.3c0.3,0.7,1,1.1,1.8,1.1h9c0.8,0,1.5-0.5,1.8-1.1L34,39.5
			C33.7,38.6,32.9,38,32,38z"/>
		<path class="st21" d="M34,32.5H22c-2.2,0-4-1.8-4-4v0h20v0C38,30.7,36.2,32.5,34,32.5z"/>
		<path class="st59" d="M37.8,28.5h-7.7c0,0-0.1,0-0.1,0c0,0,0,0,0,0c0,2.2,1.8,4,4,4c2.2,0,4-1.8,4-4c0,0,0,0,0,0
			C37.9,28.5,37.9,28.5,37.8,28.5z"/>
		<path class="st58" d="M34,30.5c1.9,0,3.4-1.3,3.9-3c0.1,0.3,0.1,0.7,0.1,1c0,2.2-1.8,4-4,4c-2.2,0-4-1.8-4-4c0-0.3,0.1-0.7,0.1-1
			C30.6,29.2,32.1,30.5,34,30.5z"/>
		<path class="st21" d="M38.8,27.2c-0.3-1.3-1.2-2.3-2.3-3c0.4,0.5,0.7,1.1,0.9,1.8c0.1,0.5-0.2,1-0.7,1h-5.6c-0.5,0-0.8-0.5-0.7-1
			c0.2-0.7,0.5-1.3,0.9-1.8c-1.1,0.7-1.9,1.7-2.3,3c-0.2,0.6,0.3,1.3,1,1.3h7.7C38.5,28.5,39,27.9,38.8,27.2z"/>
		<path class="st59" d="M25.9,28.5h-7.7c0,0-0.1,0-0.1,0c0,0,0,0,0,0c0,2.2,1.8,4,4,4c2.2,0,4-1.8,4-4c0,0,0,0,0,0
			C26,28.5,25.9,28.5,25.9,28.5z"/>
		<path class="st58" d="M22,30.5c1.9,0,3.4-1.3,3.9-3c0.1,0.3,0.1,0.7,0.1,1c0,2.2-1.8,4-4,4c-2.2,0-4-1.8-4-4c0-0.3,0.1-0.7,0.1-1
			C18.6,29.2,20.2,30.5,22,30.5z"/>
		<path class="st21" d="M26.9,27.2c-0.3-1.3-1.2-2.3-2.3-3c0.4,0.5,0.7,1.1,0.9,1.8c0.1,0.5-0.2,1-0.7,1h-5.6c-0.5,0-0.8-0.5-0.7-1
			c0.2-0.7,0.5-1.3,0.9-1.8c-1.1,0.7-1.9,1.7-2.3,3c-0.2,0.6,0.3,1.3,1,1.3h7.7C26.5,28.5,27,27.9,26.9,27.2z"/>
		<path class="st31" d="M31,38.5h-0.5c-0.6,0-1-0.4-1-1V36H32v1.5C32,38.1,31.5,38.5,31,38.5z"/>
	</g>
</g>
</svg>
