<?xml version="1.0" encoding="utf-8"?>
<!-- Generator: Adobe Illustrator 21.0.0, SVG Export Plug-In . SVG Version: 6.00 Build 0)  -->
<svg version="1.1" id="Halloween_Icon" xmlns="http://www.w3.org/2000/svg" xmlns:xlink="http://www.w3.org/1999/xlink" x="0px"
	 y="0px" viewBox="0 0 56 56" style="enable-background:new 0 0 56 56;" xml:space="preserve">
<style type="text/css">
	.st0{fill:#37474F;}
	.st1{fill:#C62828;}
	.st2{fill:#B71C1C;}
	.st3{fill:#EEEEEE;}
	.st4{fill:#E0E0E0;}
	.st5{fill:#26C6DA;}
	.st6{fill:#00ACC1;}
	.st7{fill:#424242;}
	.st8{fill:#80DEEA;}
	.st9{fill:#616161;}
	.st10{fill:#FAFAFA;}
	.st11{fill:#D81B60;}
	.st12{fill:#C2185B;}
	.st13{fill:#212121;}
	.st14{fill:#263238;}
	.st15{fill:#880E4F;}
	.st16{fill:#FFB300;}
	.st17{fill:#FF8F00;}
	.st18{fill:#8D6E63;}
	.st19{fill:#6D4C41;}
	.st20{fill:#66BB6A;}
	.st21{fill:#43A047;}
	.st22{fill:#5D4037;}
	.st23{fill:#EF6C00;}
	.st24{fill:#E65100;}
	.st25{fill:#FB8C00;}
	.st26{fill:#BCAAA4;}
	.st27{fill:#7E57C2;}
	.st28{fill:#5E35B1;}
	.st29{fill:#3E2723;}
	.st30{fill:#9575CD;}
	.st31{fill:#CFD8DC;}
	.st32{fill:#B0BEC5;}
	.st33{fill:#ECEFF1;}
	.st34{fill:#AD1457;}
	.st35{fill:#78909C;}
	.st36{fill:#546E7A;}
	.st37{fill:#90A4AE;}
	.st38{fill:#455A64;}
	.st39{fill:#FFA000;}
	.st40{fill:none;stroke:#6D4C41;stroke-linecap:round;stroke-miterlimit:10;}
	.st41{fill:#EC407A;}
	.st42{fill:#FBC02D;}
	.st43{fill:#F48FB1;}
	.st44{fill:#FFEE58;}
	.st45{fill:#F9A825;}
	.st46{fill:none;stroke:#C62828;stroke-linecap:round;stroke-linejoin:round;stroke-miterlimit:10;}
	.st47{fill:#00838F;}
	.st48{fill:#006064;}
	.st49{fill:#FFECB3;}
	.st50{fill:#BDBDBD;}
	.st51{fill:#4E342E;}
	.st52{fill:#F5F5F5;}
	.st53{fill:none;stroke:#6D4C41;stroke-miterlimit:10;}
	.st54{fill:#757575;}
	.st55{fill:#D7CCC8;}
	.st56{fill:#388E3C;}
	.st57{fill:none;stroke:#A5D6A7;stroke-linecap:round;stroke-miterlimit:10;}
	.st58{fill:#4A148C;}
	.st59{fill:#6A1B9A;}
	.st60{fill:#00897B;}
	.st61{fill:#F57C00;}
</style>
<g id="Ghost">
	<path class="st0" d="M46,56H10C4.5,56,0,51.5,0,46V10C0,4.5,4.5,0,10,0h36c5.5,0,10,4.5,10,10v36C56,51.5,51.5,56,46,56z"/>
	<g>
		<path class="st3" d="M19.3,43.5c4.4,0,4.4,4.5,8.8,4.5c4.4,0,4.4-4.5,8.7-4.5c3.9,0,4.3,3.5,7.4,4.3c0.7,0.2,1.3-0.4,1.2-1.1
			l-2.2-25.1C42.5,13.9,36,8,28.3,8h-0.5C20,8,13.5,13.9,12.8,21.7l-2.2,25.1c-0.1,0.7,0.6,1.2,1.2,1.1C14.9,47,15.4,43.5,19.3,43.5
			z"/>
		<path class="st4" d="M43.2,21.7C42.5,13.9,36,8,28.3,8h-0.5c-0.3,0-0.5,0-0.7,0c7.4,0.4,13.5,6.2,14.2,13.7l2.1,23.8
			c-2.3-1.2-3.1-4-6.5-4c-4.4,0-4.4,4.5-8.7,4.5c-4.4,0-4.4-4.5-8.8-4.5c-3.9,0-4.3,3.5-7.4,4.3c-0.5,0.1-0.9-0.1-1.1-0.5l-0.1,1.4
			c-0.1,0.7,0.6,1.2,1.2,1.1c3.1-0.8,3.5-4.3,7.4-4.3c4.4,0,4.4,4.5,8.8,4.5c4.4,0,4.4-4.5,8.7-4.5c3.7,0,4.3,3.1,6.9,4.2
			c0.2,0.1,0.3,0.1,0.5,0.2c0.7,0.2,1.3-0.4,1.2-1.1L43.2,21.7z"/>
		<ellipse transform="matrix(0.9659 -0.2588 0.2588 0.9659 -5.4618 6.5113)" class="st7" cx="22" cy="24" rx="4" ry="4"/>
		<path class="st9" d="M21.7,23c-1.6,0.4-2.7,1.8-2.9,3.4c1,1.3,2.6,1.9,4.2,1.5c1.6-0.4,2.7-1.8,2.9-3.4C25,23.2,23.4,22.6,21.7,23
			z"/>
		<ellipse transform="matrix(0.2588 -0.9659 0.9659 0.2588 2.0204 50.631)" class="st7" cx="34" cy="24" rx="4" ry="4"/>
		<path class="st9" d="M34.3,23c-1.6-0.4-3.3,0.2-4.2,1.5c0.2,1.6,1.3,2.9,2.9,3.4c1.6,0.4,3.3-0.2,4.2-1.5
			C37,24.8,35.9,23.5,34.3,23z"/>
		<g>
			<path class="st7" d="M34,34.8c0,2.7-2.7,0-6,0s-6,2.7-6,0s2.7-4.8,6-4.8S34,32.2,34,34.8z"/>
			<path class="st9" d="M28,32c-2.8,0-5.2,1.6-5.8,3.7c0.6,1.1,3-0.9,5.8-0.9s5.2,1.9,5.8,0.9C33.2,33.6,30.8,32,28,32z"/>
		</g>
		<ellipse transform="matrix(0.7071 -0.7071 0.7071 0.7071 -5.9383 18.5896)" class="st10" cx="19.5" cy="16.5" rx="4" ry="1"/>
	</g>
</g>
</svg>
